HIERARCHY
ROOT Hips
{
	OFFSET 0.00 0.00 0.00
	CHANNELS 6 Xposition Yposition Zposition Xrotation Yrotation Zrotation
	JOINT Spine
	{
		OFFSET 0.00000 7.06766 0.00000
		CHANNELS 3 Xrotation Yrotation Zrotation
		JOINT Head
		{
			OFFSET 0.00000 15.03989 0.00000
			CHANNELS 3 Xrotation Yrotation Zrotation
			End Site
			{
				OFFSET 0.00000 4.52755 0.00000
			}
		}
		JOINT LeftShoulder
		{
			OFFSET 0.00000 10.53037 0.00000
			CHANNELS 3 Xrotation Yrotation Zrotation
			JOINT LeftArm
			{
				OFFSET 7.02886 0.00000 0.00000
				CHANNELS 3 Xrotation Yrotation Zrotation
				JOINT LeftForeArm
				{
					OFFSET 10.79770 0.00000 0.00000
					CHANNELS 3 Yrotation Zrotation Xrotation
					JOINT LeftHand
					{
						OFFSET 7.90744 0.00000 0.00000
						CHANNELS 3 Xrotation Yrotation Zrotation
						JOINT LeftHandThumb1
						{
							OFFSET 0.00000 0.00000 0.00000
							CHANNELS 3 Xrotation Zrotation Yrotation
							End Site
							{
								OFFSET 0.00000 0.00000 3.93700
							}
						}
						End Site
						{
							OFFSET 3.93700 0.00000 0.00000
						}
					}
				}
			}
		}
		JOINT RightShoulder
		{
			OFFSET 0.00000 10.53037 0.00000
			CHANNELS 3 Xrotation Yrotation Zrotation
			JOINT RightArm
			{
				OFFSET -7.02886 0.00000 0.00000
				CHANNELS 3 Xrotation Yrotation Zrotation
				JOINT RightForeArm
				{
					OFFSET -10.79770 0.00000 0.00000
					CHANNELS 3 Yrotation Zrotation Xrotation
					JOINT RightHand
					{
						OFFSET -7.90744 0.00000 0.00000
						CHANNELS 3 Xrotation Yrotation Zrotation
						JOINT RightHandThumb1
						{
							OFFSET 0.00000 0.00000 0.00000
							CHANNELS 3 Xrotation Zrotation Yrotation
							End Site
							{
								OFFSET 0.00000 0.00000 3.93700
							}
						}
						End Site
						{
							OFFSET -3.93700 0.00000 0.00000
						}
					}
				}
			}
		}
	}
	JOINT LeftUpLeg
	{
		OFFSET 4.01300 0.00000 0.00000
		CHANNELS 3 Xrotation Yrotation Zrotation
		JOINT LeftLeg
		{
			OFFSET 0.00000 -16.89976 0.00000
			CHANNELS 3 Xrotation Yrotation Zrotation
			JOINT LeftFoot
			{
				OFFSET 0.00000 -17.38918 0.00000
				CHANNELS 3 Xrotation Yrotation Zrotation
				JOINT LeftToeBase
				{
					OFFSET 0.00000 -1.27456 4.75673
					CHANNELS 3 Xrotation Yrotation Zrotation
					End Site
					{
						OFFSET 0.00000 0.00000 2.95275
					}
				}
			}
		}
	}
	JOINT RightUpLeg
	{
		OFFSET -4.01300 0.00000 0.00000
		CHANNELS 3 Xrotation Yrotation Zrotation
		JOINT RightLeg
		{
			OFFSET 0.00000 -16.89976 0.00000
			CHANNELS 3 Xrotation Yrotation Zrotation
			JOINT RightFoot
			{
				OFFSET 0.00000 -17.38918 0.00000
				CHANNELS 3 Xrotation Yrotation Zrotation
				JOINT RightToeBase
				{
					OFFSET 0.00000 -1.27456 4.75673
					CHANNELS 3 Xrotation Yrotation Zrotation
					End Site
					{
						OFFSET 0.00000 0.00000 2.95275
					}
				}
			}
		}
	}
}
MOTION
Frames: 9
Frame Time: 0.008333
 19.5991 35.4111 -22.4078 170.6718 -0.1686 179.2234 -20.5384 0.8403 0.1189 9.4546 -1.1817 1.2860 -33.1874 2.3350 17.4742 1.9109 -2.1050 -10.3046 2.7169 0.0000 7.0379 0.5350 7.7068 -3.9829 33.1476 -0.0000 26.2537 4.6408 -14.6910 -8.7091 -38.4185 0.5105 12.1458 5.1932 -0.0000 36.8030 0.6969 -6.6594 5.9875 32.8623 0.0000 -24.3270 0.8183 12.3097 0.7912 -5.2239 0.0000 -0.0000 -18.7381 25.7592 2.7166 24.8645 -0.0000 0.0000 0.4327 -8.6272 0.7551 -3.6641 0.0000 0.0000 -19.3958 -28.7500 -0.9161 24.0426 -0.0000 -0.0000
 19.5988 35.4113 -22.4055 170.6903 -0.1713 179.2239 -20.4987 0.8474 0.1091 9.4548 -1.2033 1.2978 -33.1844 2.3267 17.4763 1.9231 -2.1262 -10.3002 2.7210 0.0000 7.0292 0.5334 7.7321 -3.9587 33.1476 -0.0000 26.2537 4.6407 -14.7047 -8.6902 -38.4275 0.5397 12.1322 5.1819 -0.0000 36.7727 0.6926 -6.6448 5.9645 32.8623 0.0000 -24.3270 0.8372 12.2966 0.7899 -5.2303 0.0000 0.0000 -18.7230 25.7644 2.7105 24.8496 -0.0000 0.0000 0.4483 -8.6253 0.7546 -3.6672 -0.0000 -0.0000 -19.4003 -28.7561 -0.9376 24.0445 0.0000 0.0000
 19.5981 35.4117 -22.4031 170.7040 -0.1829 179.2208 -20.4662 0.8336 0.1025 9.4661 -1.2051 1.3092 -33.1982 2.3269 17.4913 1.9325 -2.1479 -10.3025 2.7277 0.0000 7.0482 0.5324 7.7376 -3.9483 33.1476 -0.0000 26.2537 4.6431 -14.7115 -8.6864 -38.4669 0.5468 12.1356 5.2071 -0.0000 36.8052 0.6944 -6.6532 5.9723 32.8623 0.0000 -24.3270 0.8423 12.2882 0.7922 -5.2285 0.0000 0.0000 -18.7235 25.7584 2.7088 24.7347 -0.0000 0.0000 0.4609 -8.6398 0.7564 -3.6689 0.0000 0.0000 -19.3885 -28.7534 -0.9236 24.0210 -0.0000 0.0000
 19.5982 35.4121 -22.4001 170.7159 -0.1906 179.2206 -20.4405 0.8187 0.0905 9.5124 -1.1831 1.2993 -33.1736 2.3381 17.4960 1.8989 -2.1783 -10.2915 2.7534 0.0000 7.0631 0.5295 7.7301 -3.9304 33.1476 -0.0000 26.2537 4.6375 -14.6960 -8.6806 -38.5041 0.5485 12.1204 5.2385 -0.0000 36.7248 0.7087 -6.6969 6.0545 32.8623 0.0000 -24.3270 0.8489 12.2871 0.7918 -5.2316 -0.0000 -0.0000 -18.7033 25.7511 2.6947 24.8380 0.0000 0.0000 0.4705 -8.6426 0.7575 -3.6734 -0.0000 -0.0000 -19.3842 -28.7579 -0.9242 24.0444 0.0000 -0.0000
 19.5981 35.4129 -22.3974 170.7213 -0.1917 179.2175 -20.4170 0.8262 0.0778 9.5215 -1.1840 1.3252 -33.1901 2.3337 17.5136 1.9186 -2.2188 -10.2914 2.7581 0.0000 7.0852 0.5402 7.7087 -4.0210 33.1476 -0.0000 26.2537 4.6239 -14.6997 -8.6724 -38.4839 0.5561 12.1115 5.2362 -0.0000 36.7541 0.7022 -6.6498 6.0421 32.8623 0.0000 -24.3270 0.8451 12.2926 0.7948 -5.2248 0.0000 0.0000 -18.7044 25.7446 2.7047 24.7227 -0.0000 0.0000 0.4721 -8.6376 0.7606 -3.6748 0.0000 0.0000 -19.3774 -28.7696 -0.9392 24.0145 -0.0000 0.0000
 19.5974 35.4134 -22.3943 170.7320 -0.1991 179.2189 -20.3895 0.8197 0.0659 9.5361 -1.1922 1.3326 -33.1879 2.3439 17.5158 1.9287 -2.2553 -10.2758 2.7583 0.0000 7.0743 0.5429 7.7169 -4.0366 33.1476 -0.0000 26.2537 4.6441 -14.7205 -8.6595 -38.5601 0.5930 12.1200 5.2245 -0.0000 36.7667 0.7056 -6.6516 6.0688 32.8623 0.0000 -24.3270 0.8470 12.2806 0.7926 -5.2187 0.0000 -0.0000 -18.7046 25.7440 2.7293 24.6989 0.0000 -0.0000 0.4756 -8.6596 0.7575 -3.6695 -0.0000 -0.0000 -19.3667 -28.7486 -0.9234 24.0389 0.0000 -0.0000
 19.5969 35.4139 -22.3919 170.7443 -0.2088 179.2178 -20.3699 0.8168 0.0589 9.5739 -1.2057 1.3422 -33.1711 2.3483 17.5111 1.9380 -2.2918 -10.2663 2.7671 0.0000 7.0810 0.5251 7.7313 -3.8975 33.1476 -0.0000 26.2537 4.6664 -14.7193 -8.6524 -38.5658 0.6225 12.1010 5.1773 -0.0000 36.8506 0.6982 -6.5675 6.0823 32.8623 0.0000 -24.3270 0.8546 12.2817 0.7915 -5.2208 -0.0000 -0.0000 -18.6855 25.7411 2.7169 24.6825 -0.0000 -0.0000 0.4889 -8.6775 0.7580 -3.6785 0.0000 0.0000 -19.3546 -28.7444 -0.9318 24.0224 0.0000 -0.0000
 19.5969 35.4149 -22.3884 170.7488 -0.2095 179.2157 -20.3545 0.8203 0.0495 9.6049 -1.2138 1.3622 -33.1813 2.3383 17.5079 1.9410 -2.3090 -10.2396 2.7465 0.0000 7.0823 0.5372 7.6948 -4.0058 33.1476 -0.0000 26.2537 4.6588 -14.7152 -8.6579 -38.5452 0.6315 12.0980 5.2066 -0.0000 36.8066 0.7154 -6.6309 6.1715 32.8623 0.0000 -24.3270 0.8494 12.2866 0.7944 -5.2143 0.0000 0.0000 -18.6799 25.7337 2.7133 24.6930 0.0000 -0.0000 0.4922 -8.6686 0.7626 -3.6895 0.0000 -0.0000 -19.3402 -28.7588 -0.9366 24.0235 -0.0000 -0.0000
 19.5970 35.4158 -22.3848 170.7624 -0.2321 179.2123 -20.3315 0.8073 0.0399 9.6603 -1.2308 1.3526 -33.1583 2.3486 17.4982 1.9362 -2.3519 -10.2232 2.7349 0.0000 7.0701 0.5337 7.6950 -3.9792 33.1476 -0.0000 26.2537 4.6633 -14.7123 -8.6550 -38.5707 0.6509 12.0864 5.2007 -0.0000 36.8484 0.7241 -6.6785 6.2024 32.8623 0.0000 -24.3270 0.8518 12.2562 0.7981 -5.2122 0.0000 0.0000 -18.6664 25.7383 2.7009 24.8034 -0.0000 0.0000 0.5050 -8.6858 0.7666 -3.6952 -0.0000 0.0000 -19.3368 -28.7687 -0.9512 24.0510 -0.0000 0.0000
